<mxfile host="app.diagrams.net" modified="2021-06-07T15:59:09.969Z" agent="5.0 (Windows NT 10.0; Win64; x64) AppleWebKit/537.36 (KHTML, like Gecko) Chrome/91.0.4472.77 Safari/537.36" etag="isrP3U6Wx2ZJ-7MLksC3" version="14.7.4" type="github">
  <diagram id="Oh_avGFqYtp9Y8NR3-MY" name="Page-1">
    <mxGraphModel dx="5895" dy="6049" grid="1" gridSize="10" guides="1" tooltips="1" connect="1" arrows="1" fold="1" page="1" pageScale="1" pageWidth="3300" pageHeight="4681" math="0" shadow="0">
      <root>
        <mxCell id="0" />
        <mxCell id="1" parent="0" />
        <mxCell id="AjFFV0GpoV1LpZpl6PHU-68" value="package" style="shape=folder;fontStyle=1;spacingTop=10;tabWidth=40;tabHeight=14;tabPosition=left;html=1;labelBackgroundColor=none;fontFamily=Tahoma;fontSize=12;align=left;verticalAlign=bottom;fillColor=#d5e8d4;strokeColor=#82b366;labelPosition=right;verticalLabelPosition=top;opacity=90;" vertex="1" parent="1">
          <mxGeometry x="890" y="-265" width="950" height="670" as="geometry" />
        </mxCell>
        <mxCell id="AjFFV0GpoV1LpZpl6PHU-70" value="package" style="shape=folder;fontStyle=1;spacingTop=10;tabWidth=40;tabHeight=14;tabPosition=left;html=1;labelBackgroundColor=none;fontFamily=Tahoma;fontSize=12;align=left;verticalAlign=bottom;fillColor=#dae8fc;strokeColor=#6c8ebf;labelPosition=right;verticalLabelPosition=top;opacity=60;" vertex="1" parent="1">
          <mxGeometry x="-260" y="-320" width="1370" height="1240" as="geometry" />
        </mxCell>
        <mxCell id="AjFFV0GpoV1LpZpl6PHU-50" value="package" style="shape=folder;fontStyle=1;spacingTop=10;tabWidth=40;tabHeight=14;tabPosition=left;html=1;fontFamily=Tahoma;labelPosition=right;verticalLabelPosition=top;align=left;verticalAlign=bottom;fontSize=12;horizontal=1;labelBackgroundColor=none;fillColor=#e1d5e7;strokeColor=#9673a6;" vertex="1" parent="1">
          <mxGeometry x="1120" y="420" width="750" height="610" as="geometry" />
        </mxCell>
        <mxCell id="gZNe9QOqSuS0x1dgrm5Q-2" value="&lt;p style=&quot;margin: 0px ; margin-top: 4px ; text-align: center&quot;&gt;&lt;b&gt;SimulationManager&lt;/b&gt;&lt;/p&gt;&lt;hr size=&quot;1&quot;&gt;&lt;p style=&quot;margin: 0px ; margin-left: 4px&quot;&gt;&lt;br&gt;&lt;/p&gt;&lt;hr size=&quot;1&quot;&gt;&lt;p style=&quot;margin: 0px ; margin-left: 4px&quot;&gt;&lt;br&gt;&lt;/p&gt;" style="verticalAlign=top;align=left;overflow=fill;fontSize=12;fontFamily=Tahoma;html=1;" parent="1" vertex="1">
          <mxGeometry x="330" y="740" width="190" height="90" as="geometry" />
        </mxCell>
        <mxCell id="gZNe9QOqSuS0x1dgrm5Q-3" value="" style="endArrow=diamondThin;endFill=1;endSize=24;html=1;fontFamily=Tahoma;entryX=0.25;entryY=0;entryDx=0;entryDy=0;" parent="1" edge="1" target="gZNe9QOqSuS0x1dgrm5Q-2">
          <mxGeometry width="160" relative="1" as="geometry">
            <mxPoint x="240" y="250" as="sourcePoint" />
            <mxPoint x="360" y="380" as="targetPoint" />
            <Array as="points">
              <mxPoint x="240" y="300" />
              <mxPoint x="360" y="300" />
            </Array>
          </mxGeometry>
        </mxCell>
        <mxCell id="gZNe9QOqSuS0x1dgrm5Q-4" value="" style="endArrow=diamondThin;endFill=1;endSize=24;html=1;fontFamily=Tahoma;entryX=0.75;entryY=0;entryDx=0;entryDy=0;" parent="1" edge="1" target="gZNe9QOqSuS0x1dgrm5Q-2">
          <mxGeometry width="160" relative="1" as="geometry">
            <mxPoint x="600" y="250" as="sourcePoint" />
            <mxPoint x="490" y="380" as="targetPoint" />
            <Array as="points">
              <mxPoint x="600" y="300" />
              <mxPoint x="490" y="300" />
            </Array>
          </mxGeometry>
        </mxCell>
        <mxCell id="gZNe9QOqSuS0x1dgrm5Q-5" value="&lt;p style=&quot;margin: 0px ; margin-top: 4px ; text-align: center&quot;&gt;&lt;b&gt;EMSSManager&lt;/b&gt;&lt;/p&gt;&lt;hr size=&quot;1&quot;&gt;&lt;p style=&quot;margin: 0px ; margin-left: 4px&quot;&gt;&lt;br&gt;&lt;/p&gt;&lt;hr size=&quot;1&quot;&gt;&lt;p style=&quot;margin: 0px ; margin-left: 4px&quot;&gt;&lt;br&gt;&lt;/p&gt;" style="verticalAlign=top;align=left;overflow=fill;fontSize=12;fontFamily=Tahoma;html=1;" parent="1" vertex="1">
          <mxGeometry x="160" y="160" width="160" height="90" as="geometry" />
        </mxCell>
        <mxCell id="gZNe9QOqSuS0x1dgrm5Q-6" value="&lt;p style=&quot;margin: 0px ; margin-top: 4px ; text-align: center&quot;&gt;&lt;b&gt;SokobanManager&lt;/b&gt;&lt;/p&gt;&lt;hr size=&quot;1&quot;&gt;&lt;p style=&quot;margin: 0px ; margin-left: 4px&quot;&gt;&lt;br&gt;&lt;/p&gt;&lt;hr size=&quot;1&quot;&gt;&lt;p style=&quot;margin: 0px ; margin-left: 4px&quot;&gt;&lt;br&gt;&lt;/p&gt;" style="verticalAlign=top;align=left;overflow=fill;fontSize=12;fontFamily=Tahoma;html=1;" parent="1" vertex="1">
          <mxGeometry x="520" y="160" width="160" height="90" as="geometry" />
        </mxCell>
        <mxCell id="gZNe9QOqSuS0x1dgrm5Q-7" value="" style="endArrow=diamondThin;endFill=1;endSize=24;html=1;fontFamily=Tahoma;" parent="1" edge="1">
          <mxGeometry width="160" relative="1" as="geometry">
            <mxPoint x="140" y="80" as="sourcePoint" />
            <mxPoint x="200" y="160" as="targetPoint" />
            <Array as="points">
              <mxPoint x="140" y="110" />
              <mxPoint x="200" y="110" />
            </Array>
          </mxGeometry>
        </mxCell>
        <mxCell id="gZNe9QOqSuS0x1dgrm5Q-8" value="" style="endArrow=diamondThin;endFill=1;endSize=24;html=1;fontFamily=Tahoma;" parent="1" edge="1">
          <mxGeometry width="160" relative="1" as="geometry">
            <mxPoint x="340" y="80" as="sourcePoint" />
            <mxPoint x="270" y="160" as="targetPoint" />
            <Array as="points">
              <mxPoint x="340" y="110" />
              <mxPoint x="270" y="110" />
            </Array>
          </mxGeometry>
        </mxCell>
        <mxCell id="gZNe9QOqSuS0x1dgrm5Q-9" value="" style="endArrow=diamondThin;endFill=1;endSize=24;html=1;fontFamily=Tahoma;" parent="1" edge="1">
          <mxGeometry width="160" relative="1" as="geometry">
            <mxPoint x="500" y="80" as="sourcePoint" />
            <mxPoint x="560" y="160" as="targetPoint" />
            <Array as="points">
              <mxPoint x="500" y="110" />
              <mxPoint x="560" y="110" />
            </Array>
          </mxGeometry>
        </mxCell>
        <mxCell id="gZNe9QOqSuS0x1dgrm5Q-10" value="" style="endArrow=diamondThin;endFill=1;endSize=24;html=1;fontFamily=Tahoma;" parent="1" edge="1">
          <mxGeometry width="160" relative="1" as="geometry">
            <mxPoint x="700" y="80" as="sourcePoint" />
            <mxPoint x="630" y="160" as="targetPoint" />
            <Array as="points">
              <mxPoint x="700" y="110" />
              <mxPoint x="630" y="110" />
            </Array>
          </mxGeometry>
        </mxCell>
        <mxCell id="gZNe9QOqSuS0x1dgrm5Q-11" value="&lt;p style=&quot;margin: 0px ; margin-top: 4px ; text-align: center&quot;&gt;&lt;b&gt;EMSSParser&lt;/b&gt;&lt;/p&gt;&lt;hr size=&quot;1&quot;&gt;&lt;p style=&quot;margin: 0px ; margin-left: 4px&quot;&gt;&lt;br&gt;&lt;/p&gt;&lt;hr size=&quot;1&quot;&gt;&lt;p style=&quot;margin: 0px ; margin-left: 4px&quot;&gt;&lt;br&gt;&lt;/p&gt;" style="verticalAlign=top;align=left;overflow=fill;fontSize=12;fontFamily=Tahoma;html=1;" parent="1" vertex="1">
          <mxGeometry x="50" y="-10" width="160" height="90" as="geometry" />
        </mxCell>
        <mxCell id="gZNe9QOqSuS0x1dgrm5Q-12" value="&lt;p style=&quot;margin: 0px ; margin-top: 4px ; text-align: center&quot;&gt;&lt;b&gt;ParsePlanElevator&lt;/b&gt;&lt;/p&gt;&lt;hr size=&quot;1&quot;&gt;&lt;p style=&quot;margin: 0px ; margin-left: 4px&quot;&gt;&lt;br&gt;&lt;/p&gt;&lt;hr size=&quot;1&quot;&gt;&lt;p style=&quot;margin: 0px ; margin-left: 4px&quot;&gt;&lt;br&gt;&lt;/p&gt;" style="verticalAlign=top;align=left;overflow=fill;fontSize=12;fontFamily=Tahoma;html=1;" parent="1" vertex="1">
          <mxGeometry x="250" y="-10" width="160" height="90" as="geometry" />
        </mxCell>
        <mxCell id="gZNe9QOqSuS0x1dgrm5Q-13" value="&lt;p style=&quot;margin: 0px ; margin-top: 4px ; text-align: center&quot;&gt;&lt;b&gt;SokobanParser&lt;/b&gt;&lt;/p&gt;&lt;hr size=&quot;1&quot;&gt;&lt;p style=&quot;margin: 0px ; margin-left: 4px&quot;&gt;&lt;br&gt;&lt;/p&gt;&lt;hr size=&quot;1&quot;&gt;&lt;p style=&quot;margin: 0px ; margin-left: 4px&quot;&gt;&lt;br&gt;&lt;/p&gt;" style="verticalAlign=top;align=left;overflow=fill;fontSize=12;fontFamily=Tahoma;html=1;" parent="1" vertex="1">
          <mxGeometry x="430" y="-10" width="160" height="90" as="geometry" />
        </mxCell>
        <mxCell id="gZNe9QOqSuS0x1dgrm5Q-14" value="&lt;p style=&quot;margin: 0px ; margin-top: 4px ; text-align: center&quot;&gt;&lt;b&gt;SokobanPlanParser&lt;/b&gt;&lt;/p&gt;&lt;hr size=&quot;1&quot;&gt;&lt;p style=&quot;margin: 0px ; margin-left: 4px&quot;&gt;&lt;br&gt;&lt;/p&gt;&lt;hr size=&quot;1&quot;&gt;&lt;p style=&quot;margin: 0px ; margin-left: 4px&quot;&gt;&lt;br&gt;&lt;/p&gt;" style="verticalAlign=top;align=left;overflow=fill;fontSize=12;fontFamily=Tahoma;html=1;" parent="1" vertex="1">
          <mxGeometry x="610" y="-10" width="160" height="90" as="geometry" />
        </mxCell>
        <mxCell id="gZNe9QOqSuS0x1dgrm5Q-15" value="&lt;p style=&quot;margin: 0px ; margin-top: 4px ; text-align: center&quot;&gt;&lt;b&gt;Wall&lt;/b&gt;&lt;/p&gt;&lt;hr size=&quot;1&quot;&gt;&lt;p style=&quot;margin: 0px ; margin-left: 4px&quot;&gt;&lt;/p&gt;&lt;p style=&quot;margin: 0px ; margin-left: 4px&quot;&gt;&lt;br&gt;&lt;/p&gt;" style="verticalAlign=top;align=left;overflow=fill;fontSize=12;fontFamily=Tahoma;html=1;" parent="1" vertex="1">
          <mxGeometry x="750" y="130" width="120" height="50" as="geometry" />
        </mxCell>
        <mxCell id="gZNe9QOqSuS0x1dgrm5Q-16" value="&lt;p style=&quot;margin: 0px ; margin-top: 4px ; text-align: center&quot;&gt;&lt;b&gt;Agent&lt;/b&gt;&lt;/p&gt;&lt;hr size=&quot;1&quot;&gt;&lt;p style=&quot;margin: 0px ; margin-left: 4px&quot;&gt;&lt;br&gt;&lt;/p&gt;" style="verticalAlign=top;align=left;overflow=fill;fontSize=12;fontFamily=Tahoma;html=1;" parent="1" vertex="1">
          <mxGeometry x="750" y="190" width="120" height="50" as="geometry" />
        </mxCell>
        <mxCell id="gZNe9QOqSuS0x1dgrm5Q-17" value="&lt;p style=&quot;margin: 0px ; margin-top: 4px ; text-align: center&quot;&gt;&lt;b&gt;Goal&lt;/b&gt;&lt;/p&gt;&lt;hr size=&quot;1&quot;&gt;&lt;p style=&quot;margin: 0px ; margin-left: 4px&quot;&gt;&lt;br&gt;&lt;/p&gt;&lt;hr size=&quot;1&quot;&gt;&lt;p style=&quot;margin: 0px ; margin-left: 4px&quot;&gt;&lt;br&gt;&lt;/p&gt;" style="verticalAlign=top;align=left;overflow=fill;fontSize=12;fontFamily=Tahoma;html=1;" parent="1" vertex="1">
          <mxGeometry x="750" y="250" width="120" height="50" as="geometry" />
        </mxCell>
        <mxCell id="gZNe9QOqSuS0x1dgrm5Q-18" value="&lt;p style=&quot;margin: 0px ; margin-top: 4px ; text-align: center&quot;&gt;&lt;b&gt;Stone&lt;/b&gt;&lt;/p&gt;&lt;hr size=&quot;1&quot;&gt;&lt;p style=&quot;margin: 0px ; margin-left: 4px&quot;&gt;&lt;br&gt;&lt;/p&gt;&lt;hr size=&quot;1&quot;&gt;&lt;p style=&quot;margin: 0px ; margin-left: 4px&quot;&gt;&lt;br&gt;&lt;/p&gt;" style="verticalAlign=top;align=left;overflow=fill;fontSize=12;fontFamily=Tahoma;html=1;" parent="1" vertex="1">
          <mxGeometry x="750" y="310" width="120" height="50" as="geometry" />
        </mxCell>
        <mxCell id="gZNe9QOqSuS0x1dgrm5Q-19" value="" style="endArrow=diamondThin;endFill=1;endSize=24;html=1;entryX=1;entryY=0.25;entryDx=0;entryDy=0;exitX=0;exitY=0.5;exitDx=0;exitDy=0;fontFamily=Tahoma;" parent="1" source="gZNe9QOqSuS0x1dgrm5Q-15" target="gZNe9QOqSuS0x1dgrm5Q-6" edge="1">
          <mxGeometry width="160" relative="1" as="geometry">
            <mxPoint x="670" y="190" as="sourcePoint" />
            <mxPoint x="830" y="190" as="targetPoint" />
          </mxGeometry>
        </mxCell>
        <mxCell id="gZNe9QOqSuS0x1dgrm5Q-21" value="" style="endArrow=diamondThin;endFill=1;endSize=24;html=1;entryX=1.019;entryY=0.433;entryDx=0;entryDy=0;exitX=0;exitY=0.25;exitDx=0;exitDy=0;entryPerimeter=0;fontFamily=Tahoma;" parent="1" source="gZNe9QOqSuS0x1dgrm5Q-16" target="gZNe9QOqSuS0x1dgrm5Q-6" edge="1">
          <mxGeometry width="160" relative="1" as="geometry">
            <mxPoint x="750" y="190" as="sourcePoint" />
            <mxPoint x="680" y="217.5" as="targetPoint" />
          </mxGeometry>
        </mxCell>
        <mxCell id="gZNe9QOqSuS0x1dgrm5Q-22" value="" style="endArrow=diamondThin;endFill=1;endSize=24;html=1;entryX=1.019;entryY=0.589;entryDx=0;entryDy=0;exitX=0;exitY=0.25;exitDx=0;exitDy=0;entryPerimeter=0;fontFamily=Tahoma;" parent="1" source="gZNe9QOqSuS0x1dgrm5Q-17" target="gZNe9QOqSuS0x1dgrm5Q-6" edge="1">
          <mxGeometry width="160" relative="1" as="geometry">
            <mxPoint x="770" y="175" as="sourcePoint" />
            <mxPoint x="700" y="202.5" as="targetPoint" />
          </mxGeometry>
        </mxCell>
        <mxCell id="gZNe9QOqSuS0x1dgrm5Q-23" value="" style="endArrow=diamondThin;endFill=1;endSize=24;html=1;exitX=0;exitY=0;exitDx=0;exitDy=0;fontFamily=Tahoma;" parent="1" source="gZNe9QOqSuS0x1dgrm5Q-18" edge="1">
          <mxGeometry width="160" relative="1" as="geometry">
            <mxPoint x="780" y="185" as="sourcePoint" />
            <mxPoint x="683" y="236" as="targetPoint" />
          </mxGeometry>
        </mxCell>
        <mxCell id="gZNe9QOqSuS0x1dgrm5Q-25" value="1..n" style="text;html=1;align=center;verticalAlign=middle;resizable=0;points=[];autosize=1;rotation=-25;fontFamily=Tahoma;" parent="1" vertex="1">
          <mxGeometry x="710" y="140" width="40" height="20" as="geometry" />
        </mxCell>
        <mxCell id="gZNe9QOqSuS0x1dgrm5Q-27" value="1..n" style="text;html=1;align=center;verticalAlign=middle;resizable=0;points=[];autosize=1;rotation=0;fontFamily=Tahoma;" parent="1" vertex="1">
          <mxGeometry x="720" y="195" width="40" height="20" as="geometry" />
        </mxCell>
        <mxCell id="gZNe9QOqSuS0x1dgrm5Q-29" value="1..n" style="text;html=1;align=center;verticalAlign=middle;resizable=0;points=[];autosize=1;rotation=30;fontFamily=Tahoma;" parent="1" vertex="1">
          <mxGeometry x="720" y="230" width="40" height="20" as="geometry" />
        </mxCell>
        <mxCell id="gZNe9QOqSuS0x1dgrm5Q-30" value="1..n" style="text;html=1;align=center;verticalAlign=middle;resizable=0;points=[];autosize=1;rotation=45;fontFamily=Tahoma;" parent="1" vertex="1">
          <mxGeometry x="720" y="270" width="40" height="20" as="geometry" />
        </mxCell>
        <mxCell id="gZNe9QOqSuS0x1dgrm5Q-31" value="1" style="text;html=1;align=center;verticalAlign=middle;resizable=0;points=[];autosize=1;fontFamily=Tahoma;" parent="1" vertex="1">
          <mxGeometry x="500" y="80" width="20" height="20" as="geometry" />
        </mxCell>
        <mxCell id="gZNe9QOqSuS0x1dgrm5Q-32" value="1" style="text;html=1;align=center;verticalAlign=middle;resizable=0;points=[];autosize=1;fontFamily=Tahoma;" parent="1" vertex="1">
          <mxGeometry x="680" y="80" width="20" height="20" as="geometry" />
        </mxCell>
        <mxCell id="gZNe9QOqSuS0x1dgrm5Q-33" value="1" style="text;html=1;align=center;verticalAlign=middle;resizable=0;points=[];autosize=1;fontFamily=Tahoma;" parent="1" vertex="1">
          <mxGeometry x="340" y="80" width="20" height="20" as="geometry" />
        </mxCell>
        <mxCell id="gZNe9QOqSuS0x1dgrm5Q-34" value="1" style="text;html=1;align=center;verticalAlign=middle;resizable=0;points=[];autosize=1;fontFamily=Tahoma;" parent="1" vertex="1">
          <mxGeometry x="140" y="80" width="20" height="20" as="geometry" />
        </mxCell>
        <mxCell id="gZNe9QOqSuS0x1dgrm5Q-35" value="1" style="text;html=1;align=center;verticalAlign=middle;resizable=0;points=[];autosize=1;fontFamily=Tahoma;" parent="1" vertex="1">
          <mxGeometry x="240" y="250" width="20" height="20" as="geometry" />
        </mxCell>
        <mxCell id="gZNe9QOqSuS0x1dgrm5Q-36" value="1" style="text;html=1;align=center;verticalAlign=middle;resizable=0;points=[];autosize=1;fontFamily=Tahoma;" parent="1" vertex="1">
          <mxGeometry x="600" y="250" width="20" height="20" as="geometry" />
        </mxCell>
        <mxCell id="gZNe9QOqSuS0x1dgrm5Q-37" value="" style="endArrow=diamondThin;endFill=1;endSize=24;html=1;entryX=0.5;entryY=0;entryDx=0;entryDy=0;fontFamily=Tahoma;" parent="1" source="gZNe9QOqSuS0x1dgrm5Q-38" target="gZNe9QOqSuS0x1dgrm5Q-14" edge="1">
          <mxGeometry width="160" relative="1" as="geometry">
            <mxPoint x="475" y="-140" as="sourcePoint" />
            <mxPoint x="660" y="10" as="targetPoint" />
            <Array as="points">
              <mxPoint x="540" y="-80" />
              <mxPoint x="540" y="-60" />
              <mxPoint x="690" y="-60" />
            </Array>
          </mxGeometry>
        </mxCell>
        <mxCell id="gZNe9QOqSuS0x1dgrm5Q-38" value="&lt;p style=&quot;margin: 0px ; margin-top: 4px ; text-align: center&quot;&gt;&lt;b&gt;Action&lt;/b&gt;&lt;/p&gt;&lt;hr size=&quot;1&quot;&gt;&lt;p style=&quot;margin: 0px ; margin-left: 4px&quot;&gt;&lt;/p&gt;&lt;p style=&quot;margin: 0px ; margin-left: 4px&quot;&gt;&lt;br&gt;&lt;/p&gt;" style="verticalAlign=top;align=left;overflow=fill;fontSize=12;fontFamily=Tahoma;html=1;" parent="1" vertex="1">
          <mxGeometry x="440" y="-170" width="160" height="90" as="geometry" />
        </mxCell>
        <mxCell id="gZNe9QOqSuS0x1dgrm5Q-39" value="" style="endArrow=diamondThin;endFill=1;endSize=24;html=1;entryX=0.5;entryY=0;entryDx=0;entryDy=0;exitX=0.5;exitY=1;exitDx=0;exitDy=0;fontFamily=Tahoma;" parent="1" source="gZNe9QOqSuS0x1dgrm5Q-38" edge="1">
          <mxGeometry width="160" relative="1" as="geometry">
            <mxPoint x="435" y="-130" as="sourcePoint" />
            <mxPoint x="340" y="-10" as="targetPoint" />
            <Array as="points">
              <mxPoint x="520" y="-60" />
              <mxPoint x="340" y="-60" />
            </Array>
          </mxGeometry>
        </mxCell>
        <mxCell id="gZNe9QOqSuS0x1dgrm5Q-72" value="&lt;p style=&quot;margin: 0px ; margin-top: 4px ; text-align: center&quot;&gt;&lt;b&gt;Elevator&lt;/b&gt;&lt;/p&gt;&lt;p style=&quot;margin: 0px ; margin-left: 4px&quot;&gt;&lt;/p&gt;&lt;p style=&quot;margin: 0px ; margin-left: 4px&quot;&gt;&lt;br&gt;&lt;/p&gt;" style="verticalAlign=top;align=left;overflow=fill;fontSize=12;fontFamily=Tahoma;html=1;" parent="1" vertex="1">
          <mxGeometry x="-70" y="100" width="120" height="50" as="geometry" />
        </mxCell>
        <mxCell id="gZNe9QOqSuS0x1dgrm5Q-73" value="&lt;p style=&quot;margin: 0px ; margin-top: 4px ; text-align: center&quot;&gt;&lt;b&gt;Floor&lt;/b&gt;&lt;/p&gt;&lt;hr size=&quot;1&quot;&gt;&lt;p style=&quot;margin: 0px ; margin-left: 4px&quot;&gt;&lt;/p&gt;&lt;p style=&quot;margin: 0px ; margin-left: 4px&quot;&gt;&lt;br&gt;&lt;/p&gt;" style="verticalAlign=top;align=left;overflow=fill;fontSize=12;fontFamily=Tahoma;html=1;" parent="1" vertex="1">
          <mxGeometry x="-70" y="160" width="120" height="50" as="geometry" />
        </mxCell>
        <mxCell id="gZNe9QOqSuS0x1dgrm5Q-74" value="&lt;p style=&quot;margin: 0px ; margin-top: 4px ; text-align: center&quot;&gt;&lt;b&gt;Passenger&lt;/b&gt;&lt;/p&gt;&lt;hr size=&quot;1&quot;&gt;&lt;p style=&quot;margin: 0px ; margin-left: 4px&quot;&gt;&lt;/p&gt;&lt;p style=&quot;margin: 0px ; margin-left: 4px&quot;&gt;&lt;br&gt;&lt;/p&gt;" style="verticalAlign=top;align=left;overflow=fill;fontSize=12;fontFamily=Tahoma;html=1;" parent="1" vertex="1">
          <mxGeometry x="-70" y="220" width="120" height="50" as="geometry" />
        </mxCell>
        <mxCell id="gZNe9QOqSuS0x1dgrm5Q-75" value="&lt;p style=&quot;margin: 0px ; margin-top: 4px ; text-align: center&quot;&gt;&lt;b&gt;Ceiling&lt;/b&gt;&lt;/p&gt;&lt;hr size=&quot;1&quot;&gt;&lt;p style=&quot;margin: 0px ; margin-left: 4px&quot;&gt;&lt;/p&gt;&lt;p style=&quot;margin: 0px ; margin-left: 4px&quot;&gt;&lt;br&gt;&lt;/p&gt;" style="verticalAlign=top;align=left;overflow=fill;fontSize=12;fontFamily=Tahoma;html=1;" parent="1" vertex="1">
          <mxGeometry x="-70" y="280" width="120" height="50" as="geometry" />
        </mxCell>
        <mxCell id="gZNe9QOqSuS0x1dgrm5Q-76" value="&lt;p style=&quot;margin: 0px ; margin-top: 4px ; text-align: center&quot;&gt;&lt;b&gt;DestRoom&lt;/b&gt;&lt;/p&gt;&lt;hr size=&quot;1&quot;&gt;&lt;p style=&quot;margin: 0px ; margin-left: 4px&quot;&gt;&lt;/p&gt;&lt;p style=&quot;margin: 0px ; margin-left: 4px&quot;&gt;&lt;br&gt;&lt;/p&gt;" style="verticalAlign=top;align=left;overflow=fill;fontSize=12;fontFamily=Tahoma;html=1;" parent="1" vertex="1">
          <mxGeometry x="-70" y="340" width="120" height="50" as="geometry" />
        </mxCell>
        <mxCell id="gZNe9QOqSuS0x1dgrm5Q-77" value="" style="endArrow=diamondThin;endFill=1;endSize=24;html=1;entryX=-0.012;entryY=0.144;entryDx=0;entryDy=0;entryPerimeter=0;exitX=1;exitY=0.5;exitDx=0;exitDy=0;fontFamily=Tahoma;" parent="1" source="gZNe9QOqSuS0x1dgrm5Q-72" target="gZNe9QOqSuS0x1dgrm5Q-5" edge="1">
          <mxGeometry width="160" relative="1" as="geometry">
            <mxPoint x="-100" y="150" as="sourcePoint" />
            <mxPoint x="60" y="150" as="targetPoint" />
          </mxGeometry>
        </mxCell>
        <mxCell id="gZNe9QOqSuS0x1dgrm5Q-80" value="" style="endArrow=diamondThin;endFill=1;endSize=24;html=1;entryX=-0.019;entryY=0.356;entryDx=0;entryDy=0;entryPerimeter=0;exitX=1;exitY=0.5;exitDx=0;exitDy=0;fontFamily=Tahoma;" parent="1" target="gZNe9QOqSuS0x1dgrm5Q-5" edge="1">
          <mxGeometry width="160" relative="1" as="geometry">
            <mxPoint x="50" y="167.04" as="sourcePoint" />
            <mxPoint x="158.07999999999993" y="215.00000000000003" as="targetPoint" />
          </mxGeometry>
        </mxCell>
        <mxCell id="gZNe9QOqSuS0x1dgrm5Q-81" value="" style="endArrow=diamondThin;endFill=1;endSize=24;html=1;exitX=1;exitY=0.5;exitDx=0;exitDy=0;fontFamily=Tahoma;" parent="1" source="gZNe9QOqSuS0x1dgrm5Q-74" edge="1">
          <mxGeometry width="160" relative="1" as="geometry">
            <mxPoint x="70" y="145" as="sourcePoint" />
            <mxPoint x="157" y="205" as="targetPoint" />
          </mxGeometry>
        </mxCell>
        <mxCell id="gZNe9QOqSuS0x1dgrm5Q-82" value="" style="endArrow=diamondThin;endFill=1;endSize=24;html=1;entryX=0;entryY=0.75;entryDx=0;entryDy=0;exitX=1;exitY=0.25;exitDx=0;exitDy=0;fontFamily=Tahoma;" parent="1" source="gZNe9QOqSuS0x1dgrm5Q-75" target="gZNe9QOqSuS0x1dgrm5Q-5" edge="1">
          <mxGeometry width="160" relative="1" as="geometry">
            <mxPoint x="80" y="155" as="sourcePoint" />
            <mxPoint x="188.07999999999993" y="202.96000000000004" as="targetPoint" />
          </mxGeometry>
        </mxCell>
        <mxCell id="gZNe9QOqSuS0x1dgrm5Q-83" value="" style="endArrow=diamondThin;endFill=1;endSize=24;html=1;entryX=0;entryY=1;entryDx=0;entryDy=0;exitX=1;exitY=0.5;exitDx=0;exitDy=0;fontFamily=Tahoma;" parent="1" source="gZNe9QOqSuS0x1dgrm5Q-76" target="gZNe9QOqSuS0x1dgrm5Q-5" edge="1">
          <mxGeometry width="160" relative="1" as="geometry">
            <mxPoint x="90" y="165" as="sourcePoint" />
            <mxPoint x="198.07999999999993" y="212.96000000000004" as="targetPoint" />
          </mxGeometry>
        </mxCell>
        <mxCell id="gZNe9QOqSuS0x1dgrm5Q-84" value="1..n" style="text;html=1;align=center;verticalAlign=middle;resizable=0;points=[];autosize=1;rotation=30;fontFamily=Tahoma;" parent="1" vertex="1">
          <mxGeometry x="60" y="110" width="40" height="20" as="geometry" />
        </mxCell>
        <mxCell id="gZNe9QOqSuS0x1dgrm5Q-85" value="1..n" style="text;html=1;align=center;verticalAlign=middle;resizable=0;points=[];autosize=1;rotation=15;fontFamily=Tahoma;" parent="1" vertex="1">
          <mxGeometry x="50" y="150" width="40" height="20" as="geometry" />
        </mxCell>
        <mxCell id="gZNe9QOqSuS0x1dgrm5Q-87" value="1..n" style="text;html=1;align=center;verticalAlign=middle;resizable=0;points=[];autosize=1;rotation=-25;fontFamily=Tahoma;" parent="1" vertex="1">
          <mxGeometry x="50" y="215" width="40" height="20" as="geometry" />
        </mxCell>
        <mxCell id="gZNe9QOqSuS0x1dgrm5Q-88" value="1..n" style="text;html=1;align=center;verticalAlign=middle;resizable=0;points=[];autosize=1;rotation=-25;fontFamily=Tahoma;" parent="1" vertex="1">
          <mxGeometry x="50" y="260" width="40" height="20" as="geometry" />
        </mxCell>
        <mxCell id="gZNe9QOqSuS0x1dgrm5Q-89" value="1..n" style="text;html=1;align=center;verticalAlign=middle;resizable=0;points=[];autosize=1;rotation=-45;fontFamily=Tahoma;" parent="1" vertex="1">
          <mxGeometry x="50" y="310" width="40" height="20" as="geometry" />
        </mxCell>
        <mxCell id="gZNe9QOqSuS0x1dgrm5Q-90" value="1..n" style="text;html=1;align=center;verticalAlign=middle;resizable=0;points=[];autosize=1;rotation=0;fontFamily=Tahoma;" parent="1" vertex="1">
          <mxGeometry x="540" y="-80" width="40" height="20" as="geometry" />
        </mxCell>
        <mxCell id="gZNe9QOqSuS0x1dgrm5Q-92" value="1..n" style="text;html=1;align=center;verticalAlign=middle;resizable=0;points=[];autosize=1;rotation=0;fontFamily=Tahoma;" parent="1" vertex="1">
          <mxGeometry x="480" y="-80" width="40" height="20" as="geometry" />
        </mxCell>
        <mxCell id="AjFFV0GpoV1LpZpl6PHU-1" value="&lt;p style=&quot;margin: 0px ; margin-top: 4px ; text-align: center&quot;&gt;&lt;b&gt;UnityEngine&lt;/b&gt;&lt;/p&gt;&lt;hr size=&quot;1&quot;&gt;&lt;p style=&quot;margin: 0px ; margin-left: 4px&quot;&gt;&lt;/p&gt;&lt;p style=&quot;margin: 0px ; margin-left: 4px&quot;&gt;&lt;br&gt;&lt;/p&gt;" style="verticalAlign=top;align=left;overflow=fill;fontSize=12;fontFamily=Tahoma;html=1;" vertex="1" parent="1">
          <mxGeometry x="1160" y="-200" width="160" height="90" as="geometry" />
        </mxCell>
        <mxCell id="AjFFV0GpoV1LpZpl6PHU-2" value="&lt;p style=&quot;margin: 0px ; margin-top: 4px ; text-align: center&quot;&gt;&lt;b&gt;MonoBehaviour&lt;/b&gt;&lt;br&gt;&lt;/p&gt;&lt;hr size=&quot;1&quot;&gt;&lt;p style=&quot;margin: 0px ; margin-left: 4px&quot;&gt;&lt;/p&gt;&lt;p style=&quot;margin: 0px ; margin-left: 4px&quot;&gt;&lt;br&gt;&lt;/p&gt;" style="verticalAlign=top;align=left;overflow=fill;fontSize=12;fontFamily=Tahoma;html=1;" vertex="1" parent="1">
          <mxGeometry x="910" width="160" height="90" as="geometry" />
        </mxCell>
        <mxCell id="AjFFV0GpoV1LpZpl6PHU-3" value="&lt;b style=&quot;text-align: center&quot;&gt;&amp;nbsp; &amp;nbsp; &amp;nbsp; &amp;nbsp; &amp;nbsp; &amp;nbsp; GameObject&lt;br&gt;&lt;/b&gt;&lt;hr size=&quot;1&quot;&gt;&lt;p style=&quot;margin: 0px ; margin-left: 4px&quot;&gt;&lt;/p&gt;&lt;p style=&quot;margin: 0px ; margin-left: 4px&quot;&gt;&lt;br&gt;&lt;/p&gt;" style="verticalAlign=top;align=left;overflow=fill;fontSize=12;fontFamily=Tahoma;html=1;" vertex="1" parent="1">
          <mxGeometry x="920" y="210" width="160" height="90" as="geometry" />
        </mxCell>
        <mxCell id="AjFFV0GpoV1LpZpl6PHU-4" value="&lt;p style=&quot;margin: 0px ; margin-top: 4px ; text-align: center&quot;&gt;&lt;b&gt;Camera&lt;/b&gt;&lt;/p&gt;&lt;hr size=&quot;1&quot;&gt;&lt;p style=&quot;margin: 0px ; margin-left: 4px&quot;&gt;&lt;/p&gt;&lt;p style=&quot;margin: 0px ; margin-left: 4px&quot;&gt;&lt;br&gt;&lt;/p&gt;" style="verticalAlign=top;align=left;overflow=fill;fontSize=12;fontFamily=Tahoma;html=1;" vertex="1" parent="1">
          <mxGeometry x="1330" y="190" width="160" height="90" as="geometry" />
        </mxCell>
        <mxCell id="AjFFV0GpoV1LpZpl6PHU-9" value="Extends" style="endArrow=block;endSize=16;endFill=0;html=1;fontFamily=Tahoma;exitX=1;exitY=0;exitDx=0;exitDy=0;entryX=0;entryY=0.75;entryDx=0;entryDy=0;" edge="1" parent="1" source="gZNe9QOqSuS0x1dgrm5Q-6" target="AjFFV0GpoV1LpZpl6PHU-2">
          <mxGeometry width="160" relative="1" as="geometry">
            <mxPoint x="960" y="160" as="sourcePoint" />
            <mxPoint x="1120" y="160" as="targetPoint" />
            <Array as="points">
              <mxPoint x="810" y="68" />
            </Array>
          </mxGeometry>
        </mxCell>
        <mxCell id="AjFFV0GpoV1LpZpl6PHU-10" value="Extends" style="endArrow=block;endSize=16;endFill=0;html=1;fontFamily=Tahoma;entryX=0;entryY=0;entryDx=0;entryDy=0;" edge="1" parent="1" target="AjFFV0GpoV1LpZpl6PHU-2">
          <mxGeometry width="160" relative="1" as="geometry">
            <mxPoint x="230" y="160" as="sourcePoint" />
            <mxPoint x="1330" y="70" as="targetPoint" />
            <Array as="points">
              <mxPoint x="230" y="-210" />
              <mxPoint x="840" y="-210" />
            </Array>
          </mxGeometry>
        </mxCell>
        <mxCell id="AjFFV0GpoV1LpZpl6PHU-14" style="edgeStyle=orthogonalEdgeStyle;orthogonalLoop=1;jettySize=auto;html=1;fontFamily=Tahoma;rounded=1;" edge="1" parent="1" source="AjFFV0GpoV1LpZpl6PHU-11">
          <mxGeometry relative="1" as="geometry">
            <mxPoint x="270" y="-210" as="targetPoint" />
            <Array as="points">
              <mxPoint x="-120" y="425" />
              <mxPoint x="-120" y="-210" />
            </Array>
          </mxGeometry>
        </mxCell>
        <mxCell id="AjFFV0GpoV1LpZpl6PHU-11" value="&lt;p style=&quot;margin: 0px ; margin-top: 4px ; text-align: center&quot;&gt;&lt;b&gt;View3ZoomCamera&lt;/b&gt;&lt;/p&gt;&lt;hr size=&quot;1&quot;&gt;&lt;p style=&quot;margin: 0px ; margin-left: 4px&quot;&gt;&lt;/p&gt;&lt;p style=&quot;margin: 0px ; margin-left: 4px&quot;&gt;&lt;br&gt;&lt;/p&gt;" style="verticalAlign=top;align=left;overflow=fill;fontSize=12;fontFamily=Tahoma;html=1;" vertex="1" parent="1">
          <mxGeometry x="-70" y="400" width="120" height="50" as="geometry" />
        </mxCell>
        <mxCell id="AjFFV0GpoV1LpZpl6PHU-12" value="" style="endArrow=diamondThin;endFill=1;endSize=24;html=1;entryX=0.125;entryY=1;entryDx=0;entryDy=0;exitX=1;exitY=0.5;exitDx=0;exitDy=0;fontFamily=Tahoma;entryPerimeter=0;" edge="1" parent="1" target="gZNe9QOqSuS0x1dgrm5Q-5">
          <mxGeometry width="160" relative="1" as="geometry">
            <mxPoint x="50" y="425" as="sourcePoint" />
            <mxPoint x="160" y="310" as="targetPoint" />
          </mxGeometry>
        </mxCell>
        <mxCell id="AjFFV0GpoV1LpZpl6PHU-13" value="1" style="text;html=1;align=center;verticalAlign=middle;resizable=0;points=[];autosize=1;rotation=-45;fontFamily=Tahoma;" vertex="1" parent="1">
          <mxGeometry x="60" y="370" width="20" height="20" as="geometry" />
        </mxCell>
        <mxCell id="AjFFV0GpoV1LpZpl6PHU-15" value="" style="endArrow=diamondThin;endFill=1;endSize=24;html=1;fontFamily=Tahoma;entryX=0.5;entryY=1;entryDx=0;entryDy=0;exitX=0;exitY=1;exitDx=0;exitDy=0;" edge="1" parent="1" source="AjFFV0GpoV1LpZpl6PHU-1" target="AjFFV0GpoV1LpZpl6PHU-11">
          <mxGeometry width="160" relative="1" as="geometry">
            <mxPoint x="1060" y="510" as="sourcePoint" />
            <mxPoint x="900" y="510" as="targetPoint" />
            <Array as="points">
              <mxPoint x="1160" y="510" />
              <mxPoint x="-10" y="510" />
            </Array>
          </mxGeometry>
        </mxCell>
        <mxCell id="AjFFV0GpoV1LpZpl6PHU-16" value="" style="endArrow=diamondThin;endFill=1;endSize=24;html=1;fontFamily=Tahoma;exitX=0;exitY=1;exitDx=0;exitDy=0;entryX=0.75;entryY=1;entryDx=0;entryDy=0;" edge="1" parent="1" source="AjFFV0GpoV1LpZpl6PHU-1" target="gZNe9QOqSuS0x1dgrm5Q-6">
          <mxGeometry width="160" relative="1" as="geometry">
            <mxPoint x="990" y="420" as="sourcePoint" />
            <mxPoint x="1150" y="420" as="targetPoint" />
            <Array as="points">
              <mxPoint x="1160" y="510" />
              <mxPoint x="640" y="510" />
            </Array>
          </mxGeometry>
        </mxCell>
        <mxCell id="AjFFV0GpoV1LpZpl6PHU-17" value="" style="endArrow=diamondThin;endFill=1;endSize=24;html=1;fontFamily=Tahoma;exitX=0;exitY=1;exitDx=0;exitDy=0;entryX=0.25;entryY=1;entryDx=0;entryDy=0;entryPerimeter=0;" edge="1" parent="1" source="AjFFV0GpoV1LpZpl6PHU-1" target="gZNe9QOqSuS0x1dgrm5Q-5">
          <mxGeometry width="160" relative="1" as="geometry">
            <mxPoint x="1170" y="-70" as="sourcePoint" />
            <mxPoint x="650" y="260" as="targetPoint" />
            <Array as="points">
              <mxPoint x="1160" y="510" />
              <mxPoint x="200" y="510" />
            </Array>
          </mxGeometry>
        </mxCell>
        <mxCell id="AjFFV0GpoV1LpZpl6PHU-18" value="1" style="text;html=1;align=center;verticalAlign=middle;resizable=0;points=[];autosize=1;fontFamily=Tahoma;" vertex="1" parent="1">
          <mxGeometry x="210" y="480" width="20" height="20" as="geometry" />
        </mxCell>
        <mxCell id="AjFFV0GpoV1LpZpl6PHU-19" value="1" style="text;html=1;align=center;verticalAlign=middle;resizable=0;points=[];autosize=1;fontFamily=Tahoma;" vertex="1" parent="1">
          <mxGeometry x="650" y="480" width="20" height="20" as="geometry" />
        </mxCell>
        <mxCell id="AjFFV0GpoV1LpZpl6PHU-20" value="1" style="text;html=1;align=center;verticalAlign=middle;resizable=0;points=[];autosize=1;fontFamily=Tahoma;" vertex="1" parent="1">
          <mxGeometry x="10" y="480" width="20" height="20" as="geometry" />
        </mxCell>
        <mxCell id="AjFFV0GpoV1LpZpl6PHU-21" value="&lt;p style=&quot;margin: 0px ; margin-top: 4px ; text-align: center&quot;&gt;&lt;b&gt;SceneManagement&lt;/b&gt;&lt;br&gt;&lt;/p&gt;&lt;hr size=&quot;1&quot;&gt;&lt;p style=&quot;margin: 0px ; margin-left: 4px&quot;&gt;&lt;/p&gt;&lt;p style=&quot;margin: 0px ; margin-left: 4px&quot;&gt;&lt;br&gt;&lt;/p&gt;" style="verticalAlign=top;align=left;overflow=fill;fontSize=12;fontFamily=Tahoma;html=1;" vertex="1" parent="1">
          <mxGeometry x="1330" y="300" width="160" height="90" as="geometry" />
        </mxCell>
        <mxCell id="AjFFV0GpoV1LpZpl6PHU-22" value="&lt;p style=&quot;margin: 0px ; margin-top: 4px ; text-align: center&quot;&gt;&lt;b&gt;UI&lt;/b&gt;&lt;/p&gt;&lt;hr size=&quot;1&quot;&gt;&lt;p style=&quot;margin: 0px ; margin-left: 4px&quot;&gt;&lt;/p&gt;&lt;p style=&quot;margin: 0px ; margin-left: 4px&quot;&gt;&lt;br&gt;&lt;/p&gt;" style="verticalAlign=top;align=left;overflow=fill;fontSize=12;fontFamily=Tahoma;html=1;" vertex="1" parent="1">
          <mxGeometry x="1330" y="790" width="160" height="90" as="geometry" />
        </mxCell>
        <mxCell id="AjFFV0GpoV1LpZpl6PHU-23" value="&lt;p style=&quot;margin: 0px ; margin-top: 4px ; text-align: center&quot;&gt;&lt;b&gt;Text&lt;/b&gt;&lt;/p&gt;&lt;hr size=&quot;1&quot;&gt;&lt;p style=&quot;margin: 0px ; margin-left: 4px&quot;&gt;&lt;/p&gt;&lt;p style=&quot;margin: 0px ; margin-left: 4px&quot;&gt;&lt;br&gt;&lt;/p&gt;" style="verticalAlign=top;align=left;overflow=fill;fontSize=12;fontFamily=Tahoma;html=1;" vertex="1" parent="1">
          <mxGeometry x="1670" y="790" width="100" height="90" as="geometry" />
        </mxCell>
        <mxCell id="AjFFV0GpoV1LpZpl6PHU-24" value="&lt;p style=&quot;margin: 0px ; margin-top: 4px ; text-align: center&quot;&gt;&lt;b&gt;CharacterController&lt;/b&gt;&lt;/p&gt;&lt;hr size=&quot;1&quot;&gt;&lt;p style=&quot;margin: 0px ; margin-left: 4px&quot;&gt;&lt;/p&gt;&lt;p style=&quot;margin: 0px ; margin-left: 4px&quot;&gt;&lt;br&gt;&lt;/p&gt;" style="verticalAlign=top;align=left;overflow=fill;fontSize=12;fontFamily=Tahoma;html=1;" vertex="1" parent="1">
          <mxGeometry x="1330" y="445" width="160" height="90" as="geometry" />
        </mxCell>
        <mxCell id="AjFFV0GpoV1LpZpl6PHU-25" value="&lt;p style=&quot;margin: 0px ; margin-top: 4px ; text-align: center&quot;&gt;&lt;b&gt;Material&lt;/b&gt;&lt;/p&gt;&lt;hr size=&quot;1&quot;&gt;&lt;p style=&quot;margin: 0px ; margin-left: 4px&quot;&gt;&lt;/p&gt;&lt;p style=&quot;margin: 0px ; margin-left: 4px&quot;&gt;&lt;br&gt;&lt;/p&gt;" style="verticalAlign=top;align=left;overflow=fill;fontSize=12;fontFamily=Tahoma;html=1;" vertex="1" parent="1">
          <mxGeometry x="1330" y="560" width="160" height="90" as="geometry" />
        </mxCell>
        <mxCell id="AjFFV0GpoV1LpZpl6PHU-26" value="&lt;p style=&quot;margin: 0px ; margin-top: 4px ; text-align: center&quot;&gt;&lt;b&gt;Canvas&lt;/b&gt;&lt;/p&gt;&lt;hr size=&quot;1&quot;&gt;&lt;p style=&quot;margin: 0px ; margin-left: 4px&quot;&gt;&lt;/p&gt;&lt;p style=&quot;margin: 0px ; margin-left: 4px&quot;&gt;&lt;br&gt;&lt;/p&gt;" style="verticalAlign=top;align=left;overflow=fill;fontSize=12;fontFamily=Tahoma;html=1;" vertex="1" parent="1">
          <mxGeometry x="1330" y="680" width="160" height="90" as="geometry" />
        </mxCell>
        <mxCell id="AjFFV0GpoV1LpZpl6PHU-27" value="&lt;p style=&quot;margin: 0px ; margin-top: 4px ; text-align: center&quot;&gt;&lt;b&gt;Button&lt;/b&gt;&lt;/p&gt;&lt;hr size=&quot;1&quot;&gt;&lt;p style=&quot;margin: 0px ; margin-left: 4px&quot;&gt;&lt;/p&gt;&lt;p style=&quot;margin: 0px ; margin-left: 4px&quot;&gt;&lt;br&gt;&lt;/p&gt;" style="verticalAlign=top;align=left;overflow=fill;fontSize=12;fontFamily=Tahoma;html=1;" vertex="1" parent="1">
          <mxGeometry x="1670" y="680" width="100" height="90" as="geometry" />
        </mxCell>
        <mxCell id="AjFFV0GpoV1LpZpl6PHU-28" value="&lt;p style=&quot;margin: 0px ; margin-top: 4px ; text-align: center&quot;&gt;&lt;b&gt;InputField&lt;/b&gt;&lt;/p&gt;&lt;hr size=&quot;1&quot;&gt;&lt;p style=&quot;margin: 0px ; margin-left: 4px&quot;&gt;&lt;/p&gt;&lt;p style=&quot;margin: 0px ; margin-left: 4px&quot;&gt;&lt;br&gt;&lt;/p&gt;" style="verticalAlign=top;align=left;overflow=fill;fontSize=12;fontFamily=Tahoma;html=1;" vertex="1" parent="1">
          <mxGeometry x="1670" y="900" width="100" height="90" as="geometry" />
        </mxCell>
        <mxCell id="AjFFV0GpoV1LpZpl6PHU-29" value="&lt;p style=&quot;margin: 0px ; margin-top: 4px ; text-align: center&quot;&gt;&lt;b&gt;FirstPersonCamera&lt;/b&gt;&lt;/p&gt;&lt;hr size=&quot;1&quot;&gt;&lt;p style=&quot;margin: 0px ; margin-left: 4px&quot;&gt;&lt;/p&gt;&lt;p style=&quot;margin: 0px ; margin-left: 4px&quot;&gt;&lt;br&gt;&lt;/p&gt;" style="verticalAlign=top;align=left;overflow=fill;fontSize=12;fontFamily=Tahoma;html=1;" vertex="1" parent="1">
          <mxGeometry x="1330" y="-50" width="160" height="90" as="geometry" />
        </mxCell>
        <mxCell id="AjFFV0GpoV1LpZpl6PHU-30" value="" style="endArrow=diamondThin;endFill=1;endSize=24;html=1;fontFamily=Tahoma;entryX=0;entryY=0.25;entryDx=0;entryDy=0;" edge="1" parent="1" target="AjFFV0GpoV1LpZpl6PHU-29">
          <mxGeometry width="160" relative="1" as="geometry">
            <mxPoint x="1160" y="-80" as="sourcePoint" />
            <mxPoint x="890" y="600" as="targetPoint" />
            <Array as="points">
              <mxPoint x="1160" y="-27" />
            </Array>
          </mxGeometry>
        </mxCell>
        <mxCell id="AjFFV0GpoV1LpZpl6PHU-31" value="" style="endArrow=diamondThin;endFill=1;endSize=24;html=1;fontFamily=Tahoma;exitX=0;exitY=1;exitDx=0;exitDy=0;" edge="1" parent="1" source="AjFFV0GpoV1LpZpl6PHU-29">
          <mxGeometry width="160" relative="1" as="geometry">
            <mxPoint x="840" y="350" as="sourcePoint" />
            <mxPoint x="499" y="740" as="targetPoint" />
            <Array as="points">
              <mxPoint x="1200" y="170" />
              <mxPoint x="990" y="640" />
              <mxPoint x="499" y="640" />
            </Array>
          </mxGeometry>
        </mxCell>
        <mxCell id="AjFFV0GpoV1LpZpl6PHU-32" value="1" style="text;html=1;align=center;verticalAlign=middle;resizable=0;points=[];autosize=1;fontFamily=Tahoma;" vertex="1" parent="1">
          <mxGeometry x="1160" y="-60" width="20" height="20" as="geometry" />
        </mxCell>
        <mxCell id="AjFFV0GpoV1LpZpl6PHU-33" value="1" style="text;html=1;align=center;verticalAlign=middle;resizable=0;points=[];autosize=1;fontFamily=Tahoma;" vertex="1" parent="1">
          <mxGeometry x="1320" y="70" width="20" height="20" as="geometry" />
        </mxCell>
        <mxCell id="AjFFV0GpoV1LpZpl6PHU-34" value="" style="endArrow=diamondThin;endFill=1;endSize=24;html=1;fontFamily=Tahoma;exitX=0;exitY=0.5;exitDx=0;exitDy=0;entryX=1;entryY=0.25;entryDx=0;entryDy=0;" edge="1" parent="1" source="AjFFV0GpoV1LpZpl6PHU-27" target="AjFFV0GpoV1LpZpl6PHU-22">
          <mxGeometry width="160" relative="1" as="geometry">
            <mxPoint x="1820" y="645" as="sourcePoint" />
            <mxPoint x="1490" y="805" as="targetPoint" />
            <Array as="points" />
          </mxGeometry>
        </mxCell>
        <mxCell id="AjFFV0GpoV1LpZpl6PHU-35" value="" style="endArrow=diamondThin;endFill=1;endSize=24;html=1;fontFamily=Tahoma;exitX=0;exitY=0.5;exitDx=0;exitDy=0;entryX=1;entryY=0.5;entryDx=0;entryDy=0;" edge="1" parent="1" source="AjFFV0GpoV1LpZpl6PHU-23" target="AjFFV0GpoV1LpZpl6PHU-22">
          <mxGeometry width="160" relative="1" as="geometry">
            <mxPoint x="1680" y="735" as="sourcePoint" />
            <mxPoint x="1500" y="822.5" as="targetPoint" />
            <Array as="points" />
          </mxGeometry>
        </mxCell>
        <mxCell id="AjFFV0GpoV1LpZpl6PHU-36" value="" style="endArrow=diamondThin;endFill=1;endSize=24;html=1;fontFamily=Tahoma;exitX=0;exitY=0.5;exitDx=0;exitDy=0;entryX=1;entryY=0.75;entryDx=0;entryDy=0;" edge="1" parent="1" source="AjFFV0GpoV1LpZpl6PHU-28" target="AjFFV0GpoV1LpZpl6PHU-22">
          <mxGeometry width="160" relative="1" as="geometry">
            <mxPoint x="1680" y="845" as="sourcePoint" />
            <mxPoint x="1500" y="845" as="targetPoint" />
            <Array as="points" />
          </mxGeometry>
        </mxCell>
        <mxCell id="AjFFV0GpoV1LpZpl6PHU-37" value="" style="endArrow=diamondThin;endFill=1;endSize=24;html=1;fontFamily=Tahoma;entryX=0.5;entryY=1;entryDx=0;entryDy=0;exitX=0;exitY=0.5;exitDx=0;exitDy=0;" edge="1" parent="1" source="AjFFV0GpoV1LpZpl6PHU-22" target="AjFFV0GpoV1LpZpl6PHU-1">
          <mxGeometry width="160" relative="1" as="geometry">
            <mxPoint x="900" y="610" as="sourcePoint" />
            <mxPoint x="1170" y="-70" as="targetPoint" />
            <Array as="points">
              <mxPoint x="1240" y="835" />
            </Array>
          </mxGeometry>
        </mxCell>
        <mxCell id="AjFFV0GpoV1LpZpl6PHU-38" value="" style="endArrow=diamondThin;endFill=1;endSize=24;html=1;fontFamily=Tahoma;entryX=0.5;entryY=1;entryDx=0;entryDy=0;exitX=0;exitY=0.5;exitDx=0;exitDy=0;" edge="1" parent="1" source="AjFFV0GpoV1LpZpl6PHU-26" target="AjFFV0GpoV1LpZpl6PHU-1">
          <mxGeometry width="160" relative="1" as="geometry">
            <mxPoint x="1340" y="845" as="sourcePoint" />
            <mxPoint x="1250" y="-70" as="targetPoint" />
            <Array as="points">
              <mxPoint x="1240" y="725" />
            </Array>
          </mxGeometry>
        </mxCell>
        <mxCell id="AjFFV0GpoV1LpZpl6PHU-39" value="" style="endArrow=diamondThin;endFill=1;endSize=24;html=1;fontFamily=Tahoma;entryX=0.5;entryY=1;entryDx=0;entryDy=0;exitX=0;exitY=0.5;exitDx=0;exitDy=0;" edge="1" parent="1" source="AjFFV0GpoV1LpZpl6PHU-25" target="AjFFV0GpoV1LpZpl6PHU-1">
          <mxGeometry width="160" relative="1" as="geometry">
            <mxPoint x="1340" y="735" as="sourcePoint" />
            <mxPoint x="1250" y="-70" as="targetPoint" />
            <Array as="points">
              <mxPoint x="1240" y="605" />
            </Array>
          </mxGeometry>
        </mxCell>
        <mxCell id="AjFFV0GpoV1LpZpl6PHU-40" value="" style="endArrow=diamondThin;endFill=1;endSize=24;html=1;fontFamily=Tahoma;entryX=0.5;entryY=1;entryDx=0;entryDy=0;exitX=0;exitY=0.5;exitDx=0;exitDy=0;" edge="1" parent="1" source="AjFFV0GpoV1LpZpl6PHU-24" target="AjFFV0GpoV1LpZpl6PHU-1">
          <mxGeometry width="160" relative="1" as="geometry">
            <mxPoint x="1340" y="615" as="sourcePoint" />
            <mxPoint x="1250" y="-70" as="targetPoint" />
            <Array as="points">
              <mxPoint x="1240" y="490" />
            </Array>
          </mxGeometry>
        </mxCell>
        <mxCell id="AjFFV0GpoV1LpZpl6PHU-41" value="" style="endArrow=diamondThin;endFill=1;endSize=24;html=1;fontFamily=Tahoma;exitX=0;exitY=0.5;exitDx=0;exitDy=0;entryX=0.5;entryY=1;entryDx=0;entryDy=0;" edge="1" parent="1" source="AjFFV0GpoV1LpZpl6PHU-21" target="AjFFV0GpoV1LpZpl6PHU-1">
          <mxGeometry width="160" relative="1" as="geometry">
            <mxPoint x="1340" y="500" as="sourcePoint" />
            <mxPoint x="1240" y="-90" as="targetPoint" />
            <Array as="points">
              <mxPoint x="1240" y="345" />
            </Array>
          </mxGeometry>
        </mxCell>
        <mxCell id="AjFFV0GpoV1LpZpl6PHU-42" value="" style="endArrow=diamondThin;endFill=1;endSize=24;html=1;fontFamily=Tahoma;exitX=0;exitY=0.5;exitDx=0;exitDy=0;entryX=0.5;entryY=1;entryDx=0;entryDy=0;" edge="1" parent="1" source="AjFFV0GpoV1LpZpl6PHU-4" target="AjFFV0GpoV1LpZpl6PHU-1">
          <mxGeometry width="160" relative="1" as="geometry">
            <mxPoint x="1340" y="385" as="sourcePoint" />
            <mxPoint x="1250" y="-70" as="targetPoint" />
            <Array as="points">
              <mxPoint x="1240" y="235" />
            </Array>
          </mxGeometry>
        </mxCell>
        <mxCell id="AjFFV0GpoV1LpZpl6PHU-43" value="" style="endArrow=diamondThin;endFill=1;endSize=24;html=1;fontFamily=Tahoma;exitX=1;exitY=0.5;exitDx=0;exitDy=0;entryX=0.5;entryY=1;entryDx=0;entryDy=0;" edge="1" parent="1" source="AjFFV0GpoV1LpZpl6PHU-3" target="AjFFV0GpoV1LpZpl6PHU-1">
          <mxGeometry width="160" relative="1" as="geometry">
            <mxPoint x="1340" y="275" as="sourcePoint" />
            <mxPoint x="1250" y="-70" as="targetPoint" />
            <Array as="points">
              <mxPoint x="1240" y="255" />
            </Array>
          </mxGeometry>
        </mxCell>
        <mxCell id="AjFFV0GpoV1LpZpl6PHU-44" value="" style="endArrow=diamondThin;endFill=1;endSize=24;html=1;fontFamily=Tahoma;exitX=0;exitY=0.5;exitDx=0;exitDy=0;entryX=0.5;entryY=1;entryDx=0;entryDy=0;" edge="1" parent="1" source="AjFFV0GpoV1LpZpl6PHU-2" target="AjFFV0GpoV1LpZpl6PHU-1">
          <mxGeometry width="160" relative="1" as="geometry">
            <mxPoint x="1340" y="165" as="sourcePoint" />
            <mxPoint x="1250" y="-70" as="targetPoint" />
            <Array as="points">
              <mxPoint x="1240" y="45" />
            </Array>
          </mxGeometry>
        </mxCell>
        <mxCell id="AjFFV0GpoV1LpZpl6PHU-45" value="Extends" style="endArrow=block;endSize=16;endFill=0;html=1;fontFamily=Tahoma;exitX=0.5;exitY=0;exitDx=0;exitDy=0;entryX=0.75;entryY=0;entryDx=0;entryDy=0;" edge="1" parent="1" source="AjFFV0GpoV1LpZpl6PHU-29" target="AjFFV0GpoV1LpZpl6PHU-2">
          <mxGeometry width="160" relative="1" as="geometry">
            <mxPoint x="690" y="170" as="sourcePoint" />
            <mxPoint x="1340" y="77.5" as="targetPoint" />
            <Array as="points">
              <mxPoint x="1410" y="-220" />
              <mxPoint x="1030" y="-220" />
            </Array>
          </mxGeometry>
        </mxCell>
        <mxCell id="AjFFV0GpoV1LpZpl6PHU-46" value="&lt;p style=&quot;margin: 0px ; margin-top: 4px ; text-align: center&quot;&gt;&lt;b&gt;SceneSimManager&lt;/b&gt;&lt;br&gt;&lt;/p&gt;&lt;hr size=&quot;1&quot;&gt;&lt;p style=&quot;margin: 0px ; margin-left: 4px&quot;&gt;&lt;/p&gt;&lt;p style=&quot;margin: 0px ; margin-left: 4px&quot;&gt;&lt;br&gt;&lt;/p&gt;" style="verticalAlign=top;align=left;overflow=fill;fontSize=12;fontFamily=Tahoma;html=1;" vertex="1" parent="1">
          <mxGeometry x="1330" y="70" width="160" height="90" as="geometry" />
        </mxCell>
        <mxCell id="AjFFV0GpoV1LpZpl6PHU-47" value="" style="endArrow=diamondThin;endFill=1;endSize=24;html=1;fontFamily=Tahoma;exitX=0;exitY=1;exitDx=0;exitDy=0;entryX=0;entryY=0.25;entryDx=0;entryDy=0;" edge="1" parent="1" source="AjFFV0GpoV1LpZpl6PHU-1" target="AjFFV0GpoV1LpZpl6PHU-46">
          <mxGeometry width="160" relative="1" as="geometry">
            <mxPoint x="1170" y="-70" as="sourcePoint" />
            <mxPoint x="900" y="610" as="targetPoint" />
            <Array as="points">
              <mxPoint x="1160" y="93" />
            </Array>
          </mxGeometry>
        </mxCell>
        <mxCell id="AjFFV0GpoV1LpZpl6PHU-48" value="1" style="text;html=1;align=center;verticalAlign=middle;resizable=0;points=[];autosize=1;fontFamily=Tahoma;" vertex="1" parent="1">
          <mxGeometry x="1160" y="60" width="20" height="20" as="geometry" />
        </mxCell>
        <mxCell id="AjFFV0GpoV1LpZpl6PHU-49" value="Extends" style="endArrow=block;endSize=16;endFill=0;html=1;fontFamily=Tahoma;exitX=0;exitY=0.75;exitDx=0;exitDy=0;entryX=0.5;entryY=1;entryDx=0;entryDy=0;" edge="1" parent="1" source="AjFFV0GpoV1LpZpl6PHU-46" target="AjFFV0GpoV1LpZpl6PHU-2">
          <mxGeometry width="160" relative="1" as="geometry">
            <mxPoint x="900" y="545" as="sourcePoint" />
            <mxPoint x="1340" y="100" as="targetPoint" />
            <Array as="points">
              <mxPoint x="990" y="140" />
            </Array>
          </mxGeometry>
        </mxCell>
        <mxCell id="AjFFV0GpoV1LpZpl6PHU-51" value="Presentation Layer" style="text;html=1;strokeColor=none;fillColor=none;align=center;verticalAlign=middle;whiteSpace=wrap;rounded=0;fontFamily=Tahoma;fontSize=19;fontStyle=1" vertex="1" parent="1">
          <mxGeometry x="1660" y="450" width="200" height="30" as="geometry" />
        </mxCell>
        <mxCell id="AjFFV0GpoV1LpZpl6PHU-52" value="1" style="text;html=1;align=center;verticalAlign=middle;resizable=0;points=[];autosize=1;fontFamily=Tahoma;" vertex="1" parent="1">
          <mxGeometry x="1110" y="230" width="20" height="20" as="geometry" />
        </mxCell>
        <mxCell id="AjFFV0GpoV1LpZpl6PHU-53" value="1" style="text;html=1;align=center;verticalAlign=middle;resizable=0;points=[];autosize=1;fontFamily=Tahoma;" vertex="1" parent="1">
          <mxGeometry x="1310" y="205" width="20" height="20" as="geometry" />
        </mxCell>
        <mxCell id="AjFFV0GpoV1LpZpl6PHU-54" value="1" style="text;html=1;align=center;verticalAlign=middle;resizable=0;points=[];autosize=1;fontFamily=Tahoma;" vertex="1" parent="1">
          <mxGeometry x="1310" y="320" width="20" height="20" as="geometry" />
        </mxCell>
        <mxCell id="AjFFV0GpoV1LpZpl6PHU-55" value="1" style="text;html=1;align=center;verticalAlign=middle;resizable=0;points=[];autosize=1;fontFamily=Tahoma;" vertex="1" parent="1">
          <mxGeometry x="1310" y="470" width="20" height="20" as="geometry" />
        </mxCell>
        <mxCell id="AjFFV0GpoV1LpZpl6PHU-56" value="1" style="text;html=1;align=center;verticalAlign=middle;resizable=0;points=[];autosize=1;fontFamily=Tahoma;" vertex="1" parent="1">
          <mxGeometry x="1310" y="580" width="20" height="20" as="geometry" />
        </mxCell>
        <mxCell id="AjFFV0GpoV1LpZpl6PHU-57" value="1" style="text;html=1;align=center;verticalAlign=middle;resizable=0;points=[];autosize=1;fontFamily=Tahoma;" vertex="1" parent="1">
          <mxGeometry x="1310" y="700" width="20" height="20" as="geometry" />
        </mxCell>
        <mxCell id="AjFFV0GpoV1LpZpl6PHU-58" value="1" style="text;html=1;align=center;verticalAlign=middle;resizable=0;points=[];autosize=1;fontFamily=Tahoma;" vertex="1" parent="1">
          <mxGeometry x="1310" y="810" width="20" height="20" as="geometry" />
        </mxCell>
        <mxCell id="AjFFV0GpoV1LpZpl6PHU-59" value="Extends" style="endArrow=block;endSize=16;endFill=0;html=1;fontFamily=Tahoma;exitX=0;exitY=0;exitDx=0;exitDy=0;entryX=1;entryY=0.5;entryDx=0;entryDy=0;" edge="1" parent="1" source="AjFFV0GpoV1LpZpl6PHU-3" target="gZNe9QOqSuS0x1dgrm5Q-15">
          <mxGeometry width="160" relative="1" as="geometry">
            <mxPoint x="690" y="170" as="sourcePoint" />
            <mxPoint x="950" y="77.5" as="targetPoint" />
            <Array as="points" />
          </mxGeometry>
        </mxCell>
        <mxCell id="AjFFV0GpoV1LpZpl6PHU-60" value="Extends" style="endArrow=block;endSize=16;endFill=0;html=1;fontFamily=Tahoma;exitX=0;exitY=0.25;exitDx=0;exitDy=0;entryX=1;entryY=0.5;entryDx=0;entryDy=0;" edge="1" parent="1" source="AjFFV0GpoV1LpZpl6PHU-3" target="gZNe9QOqSuS0x1dgrm5Q-16">
          <mxGeometry width="160" relative="1" as="geometry">
            <mxPoint x="960" y="220" as="sourcePoint" />
            <mxPoint x="880" y="165" as="targetPoint" />
            <Array as="points" />
          </mxGeometry>
        </mxCell>
        <mxCell id="AjFFV0GpoV1LpZpl6PHU-61" value="Extends" style="endArrow=block;endSize=16;endFill=0;html=1;fontFamily=Tahoma;exitX=0;exitY=0.5;exitDx=0;exitDy=0;entryX=1;entryY=0.5;entryDx=0;entryDy=0;" edge="1" parent="1" source="AjFFV0GpoV1LpZpl6PHU-3" target="gZNe9QOqSuS0x1dgrm5Q-17">
          <mxGeometry width="160" relative="1" as="geometry">
            <mxPoint x="960" y="242.5" as="sourcePoint" />
            <mxPoint x="880" y="225" as="targetPoint" />
            <Array as="points" />
          </mxGeometry>
        </mxCell>
        <mxCell id="AjFFV0GpoV1LpZpl6PHU-62" value="Extends" style="endArrow=block;endSize=16;endFill=0;html=1;fontFamily=Tahoma;exitX=0;exitY=0.75;exitDx=0;exitDy=0;entryX=1;entryY=0.5;entryDx=0;entryDy=0;" edge="1" parent="1" source="AjFFV0GpoV1LpZpl6PHU-3" target="gZNe9QOqSuS0x1dgrm5Q-18">
          <mxGeometry width="160" relative="1" as="geometry">
            <mxPoint x="960" y="265" as="sourcePoint" />
            <mxPoint x="880" y="285" as="targetPoint" />
            <Array as="points" />
          </mxGeometry>
        </mxCell>
        <mxCell id="AjFFV0GpoV1LpZpl6PHU-63" value="" style="endArrow=diamondThin;endFill=1;endSize=24;html=1;exitX=0.5;exitY=1;exitDx=0;exitDy=0;fontFamily=Tahoma;entryX=1;entryY=1;entryDx=0;entryDy=0;" edge="1" parent="1" source="AjFFV0GpoV1LpZpl6PHU-3" target="gZNe9QOqSuS0x1dgrm5Q-6">
          <mxGeometry width="160" relative="1" as="geometry">
            <mxPoint x="760" y="320" as="sourcePoint" />
            <mxPoint x="690" y="340" as="targetPoint" />
            <Array as="points">
              <mxPoint x="1000" y="460" />
              <mxPoint x="680" y="460" />
            </Array>
          </mxGeometry>
        </mxCell>
        <mxCell id="AjFFV0GpoV1LpZpl6PHU-64" value="1..n" style="text;html=1;align=center;verticalAlign=middle;resizable=0;points=[];autosize=1;rotation=0;fontFamily=Tahoma;" vertex="1" parent="1">
          <mxGeometry x="680" y="430" width="40" height="20" as="geometry" />
        </mxCell>
        <mxCell id="AjFFV0GpoV1LpZpl6PHU-65" value="" style="endArrow=diamondThin;endFill=1;endSize=24;html=1;exitX=0.5;exitY=1;exitDx=0;exitDy=0;fontFamily=Tahoma;entryX=0.75;entryY=1;entryDx=0;entryDy=0;" edge="1" parent="1" source="AjFFV0GpoV1LpZpl6PHU-3" target="gZNe9QOqSuS0x1dgrm5Q-5">
          <mxGeometry width="160" relative="1" as="geometry">
            <mxPoint x="1040" y="310" as="sourcePoint" />
            <mxPoint x="690" y="260" as="targetPoint" />
            <Array as="points">
              <mxPoint x="1000" y="460" />
              <mxPoint x="280" y="460" />
            </Array>
          </mxGeometry>
        </mxCell>
        <mxCell id="AjFFV0GpoV1LpZpl6PHU-66" value="1..n" style="text;html=1;align=center;verticalAlign=middle;resizable=0;points=[];autosize=1;rotation=0;fontFamily=Tahoma;" vertex="1" parent="1">
          <mxGeometry x="280" y="440" width="40" height="20" as="geometry" />
        </mxCell>
        <mxCell id="AjFFV0GpoV1LpZpl6PHU-69" value="Controllers Layer" style="text;html=1;strokeColor=none;fillColor=none;align=center;verticalAlign=middle;whiteSpace=wrap;rounded=0;fontFamily=Tahoma;fontSize=19;fontStyle=1" vertex="1" parent="1">
          <mxGeometry x="1630" y="-240" width="200" height="30" as="geometry" />
        </mxCell>
        <mxCell id="AjFFV0GpoV1LpZpl6PHU-72" value="Logic Layer" style="text;html=1;strokeColor=none;fillColor=none;align=center;verticalAlign=middle;whiteSpace=wrap;rounded=0;fontFamily=Tahoma;fontSize=19;fontStyle=1" vertex="1" parent="1">
          <mxGeometry x="710" y="-295" width="200" height="30" as="geometry" />
        </mxCell>
      </root>
    </mxGraphModel>
  </diagram>
</mxfile>
